# xmcd
#
# Track frame offsets:
#	150
#	17642
#	54820
#	142650
#	164207
#
# Disc length: 2760 seconds
#
# Revision: 1
# Processed by: cddbd v1.5.1PL0 Copyright (c) Steve Scherf et al.
# Submitted via: CDex 1.50Beta5
#
DISCID=360ac605
DTITLE=梯剛之 - 映画に聴くショパン<「戦場のピアニスト」で使用された名曲篇> Disc 1
DYEAR=2003
DGENRE=
TTITLE0=梯剛之/夜想曲第20番嬰ハ短調(遺作)
TTITLE1=梯剛之/バラード第1番 ト短調 Op.23
TTITLE2=インジック(ユージン)/ピアノ協奏曲第1番ホ短調 Op.11-第1楽章:アレグロ・マエストーゾ
TTITLE3=ビレット(イディル)/アンダンテ・スピアナート
TTITLE4=ビレット(イディル)/華麗なる大ポロネーズ
EXTD=
EXTT0=
EXTT1=
EXTT2=
EXTT3=
EXTT4=
PLAYORDER=
